# xmcd
#
# Track frame offsets:
#	150
#	14380
#	29352
#	45937
#	61140
#	77582
#	89682
#	105150
#	118787
#	133940
#	146560
#
# Disc length: 2164 seconds
#
# Revision: 2
# Processed by: cddbd v1.5.1PL0 Copyright (c) Steve Scherf et al.
# Submitted via: dBpowerAMP V4.0
#
DISCID=8908720b
DTITLE=Judy Harrison  - The Girl Most Likely tO...
DYEAR=1900
DGENRE=Country
TTITLE0=There Ought to be a Law
TTITLE1=The Girl Most Likely To
TTITLE2=Slow Steady Rain
TTITLE3=I Like That in a Man
TTITLE4=That Won't Mkae This Right
TTITLE5=I Can Live Without Him
TTITLE6=Sooner or Later
TTITLE7=If You Can't Say Something Nice
TTITLE8=Love Don't Even Know my Name
TTITLE9=I Will Love Again
TTITLE10=Sent For Me
EXTD=
EXTT0=
EXTT1=
EXTT2=
EXTT3=
EXTT4=
EXTT5=
EXTT6=
EXTT7=
EXTT8=
EXTT9=
EXTT10=
PLAYORDER=
